<svg width="172" height="32" viewBox="0 0 172 32" fill="none" xmlns="http://www.w3.org/2000/svg">
<path d="M13.9164 9.36081L8.16683 12.6803V19.3194L10.4164 20.6181V13.847L12.7497 12.4998V21.9653L13.9164 22.6389L15.0831 21.9653V12.4998L17.4164 13.847V20.6181V23.3124L13.9164 25.3332L5.8335 20.6665V11.3332L13.9164 6.6665L21.9993 11.3332V20.6665L19.7079 21.9895L19.666 19.3194V12.6803L13.9164 9.36081Z" fill="url(#paint0_linear_454_102995)"/>
<path d="M51.6875 18.9375H49.1094C48.1719 16.9062 47.2083 14.6667 46.2188 12.2188L44.8125 24.4062H42.7812L44.8125 6.51562H46.7656L46.2188 11.6719H48.0156L51.6875 18.9375ZM42.3906 9.17188C42.8073 9.17188 43.0938 9.22396 43.25 9.32812C43.3542 9.43229 43.4062 9.64062 43.4062 9.95312C43.1458 11.6719 42.6771 13.2865 42 14.7969C41.3229 16.3073 40.4896 17.6615 39.5 18.8594C38.4583 20.1094 37.3385 21.1771 36.1406 22.0625C34.8906 22.9479 33.6406 23.6771 32.3906 24.25L32.8594 21.75C33.6927 21.2812 34.5521 20.7083 35.4375 20.0312C36.2708 19.3542 37.0521 18.5729 37.7812 17.6875C36.9479 16.3333 36.2969 15.1354 35.8281 14.0938H38.1719C38.4323 14.7708 38.7448 15.3698 39.1094 15.8906C39.9948 14.5365 40.6198 13.0521 40.9844 11.4375C40.9844 11.2812 40.9844 11.151 40.9844 11.0469C40.9323 10.9948 40.8281 10.9688 40.6719 10.9688H38.4062C37.7292 11.9062 37 12.7656 36.2188 13.5469C35.3854 14.3802 34.526 15.0833 33.6406 15.6562L34.0312 12.7656C34.7604 12.1927 35.4375 11.4896 36.0625 10.6562C36.6354 9.82292 37.1042 9.04167 37.4688 8.3125C37.8333 7.58333 38.1198 6.93229 38.3281 6.35938H40.5938C40.3333 7.24479 39.9688 8.18229 39.5 9.17188H42.3906ZM69.7344 12.0625C70.2031 12.0625 70.5417 12.1667 70.75 12.375C70.9062 12.6354 70.9583 12.9219 70.9062 13.2344L70.5938 15.5H68.3281L68.5625 13.9375C68.6146 13.9375 68.6406 13.8854 68.6406 13.7812C68.5885 13.7292 68.4583 13.7031 68.25 13.7031H55.6719L55.3594 15.6562H53.1719L53.7188 12.0625H55.8281L56.6875 6.59375H67.625C68.1458 6.59375 68.5365 6.64583 68.7969 6.75C69.0052 6.90625 69.1354 7.11458 69.1875 7.375C69.1875 7.63542 69.1615 7.89583 69.1094 8.15625L68.4844 12.0625H69.7344ZM66.6094 8.23438H58.4844L58.3281 9.25H62.9375C63.8229 9.25 64.2396 9.58854 64.1875 10.2656L63.9531 12.0625H66.375L66.9219 8.625C66.974 8.36458 66.8698 8.23438 66.6094 8.23438ZM58.1719 10.7344L57.9375 12.0625H61.8438L62 11.2031C62.0521 10.8906 61.9219 10.7344 61.6094 10.7344H58.1719ZM67 14.7969C67.4167 14.7969 67.7292 14.875 67.9375 15.0312C68.0938 15.1875 68.1458 15.474 68.0938 15.8906L66.8438 24.25H62.5469L62 22.6875H64.9688L65.2031 21.4375H57.0781L56.6875 24.25H54.5L55.9062 14.7969H67ZM65.5938 16.2812H57.7812L57.625 17.375H65.6719L65.8281 16.5938C65.8802 16.3854 65.8021 16.2812 65.5938 16.2812ZM57.3125 20.0312H65.3594L65.5156 18.8594H57.3906L57.3125 20.0312ZM86.4531 14.6406C85.6198 15.3698 84.8125 16.0469 84.0312 16.6719H80.9844C82.4948 15.6823 83.9271 14.5885 85.2812 13.3906L83.7969 11.5156C83.1198 12.0885 82.4427 12.5573 81.7656 12.9219L82.1562 10.4219C82.7812 10.0052 83.3802 9.40625 83.9531 8.625C84.526 7.84375 84.9167 7.08854 85.125 6.35938H87.2344C87.026 7.03646 86.7656 7.66146 86.4531 8.23438H90.0469C90.3073 8.23438 90.5156 8.28646 90.6719 8.39062C90.8281 8.54688 90.9062 8.72917 90.9062 8.9375C90.9062 9.61458 90.776 10.1354 90.5156 10.5C89.7344 11.4375 88.7969 12.401 87.7031 13.3906C88.849 14.5885 89.9948 15.6823 91.1406 16.6719H88.25L86.4531 14.6406ZM81.2969 15.7344H80.5156L79.2656 24.4062H76.375L75.9062 22.8438H77.5469L77.7812 21.2031H75.3594L74.9688 24.4062H72.9375L74.1875 15.7344H73.4062L73.875 11.8281H74.5L75.2031 6.90625H80.75C81.0104 6.90625 81.2448 6.93229 81.4531 6.98438C81.6615 7.08854 81.7396 7.375 81.6875 7.84375L81.0625 11.8281C81.2708 11.8802 81.4531 11.9583 81.6094 12.0625C81.7135 12.1667 81.7396 12.4271 81.6875 12.8438L81.2969 15.7344ZM79.5 8.39062H76.8438L76.6875 9.25H78.3281C78.5885 9.25 78.7708 9.27604 78.875 9.32812C78.9271 9.43229 78.9271 9.61458 78.875 9.875L78.6406 11.8281H79.2656L79.6562 8.625C79.7083 8.46875 79.6562 8.39062 79.5 8.39062ZM85.2031 10.7344L86.6094 12.2188C86.8698 11.9583 87.2083 11.6198 87.625 11.2031C87.9896 10.7865 88.276 10.4479 88.4844 10.1875C88.5365 10.1354 88.5625 10.0833 88.5625 10.0312L88.4844 9.95312H85.2812L84.5781 10.7344H85.2031ZM76.5312 10.6562L76.375 11.8281H77L77.1562 10.7344C77.2083 10.6823 77.1562 10.6562 77 10.6562H76.5312ZM75.5156 14.5625H79.4219L79.5 13.7031C79.5 13.651 79.5 13.599 79.5 13.5469C79.5 13.4948 79.4479 13.4688 79.3438 13.4688H75.6719L75.5156 14.5625ZM78.4844 16.2031C78.4844 16.099 78.4323 16.0469 78.3281 16.0469H76.0625L75.9062 17.0625H78.3281L78.4844 16.2031ZM88.6406 17.375C89.1094 17.375 89.4479 17.4531 89.6562 17.6094C89.8125 17.8177 89.8646 18.1042 89.8125 18.4688L89.0312 24.4062H81.0625L82 17.375H88.6406ZM75.5938 19.6406H78.0156L78.1719 18.5469H75.75L75.5938 19.6406ZM87.7031 19.1719C87.7031 19.0677 87.625 19.0156 87.4688 19.0156H83.875L83.3281 22.7656H87.2344L87.7031 19.1719ZM96.6094 9.09375L95.2812 10.8125H92.7031C93.3281 10.1354 93.9271 9.40625 94.5 8.625C95.0729 7.84375 95.5677 7.11458 95.9844 6.4375H98.4062L97.7031 7.45312H102.547L102.312 9.09375H99.6562C99.7604 9.30208 99.8906 9.53646 100.047 9.79688C100.151 10.1094 100.255 10.3177 100.359 10.4219H97.9375C97.8333 10.1615 97.6771 9.71875 97.4688 9.09375H96.6094ZM105.984 7.45312H111.375L111.141 9.09375H108.094C108.25 9.45833 108.484 9.95312 108.797 10.5781H106.453C106.245 10.0573 106.062 9.5625 105.906 9.09375H104.812L103.797 10.3438H101.141C102.547 8.88542 103.589 7.58333 104.266 6.4375H106.688L105.984 7.45312ZM108.641 11.5156C109.318 11.5156 109.76 11.6198 109.969 11.8281C110.125 12.0365 110.151 12.4531 110.047 13.0781L109.812 14.7969H107.703C107.755 14.901 107.781 15.0573 107.781 15.2656L107.234 18.625H96.4531L96.2969 19.7188H106.766C107.286 19.7188 107.651 19.7969 107.859 19.9531C108.068 20.1094 108.146 20.3958 108.094 20.8125L107.625 24.4062H93.3281L94.7344 14.7969H92.7031L93.1719 11.5156H100.75L100.438 10.6562H102.781L103.172 11.5156H108.641ZM107.859 13.3906C107.911 13.1823 107.807 13.0781 107.547 13.0781H95.125L94.9688 14.25H106.531C107.104 14.25 107.469 14.3542 107.625 14.5625L107.859 13.3906ZM105.359 16.0469C105.411 15.8385 105.307 15.7344 105.047 15.7344H96.8438L96.6875 17.0625H105.203L105.359 16.0469ZM105.438 21.2031H96.0625L95.9062 22.8438H105.594L105.75 21.5156C105.802 21.4635 105.802 21.3854 105.75 21.2812C105.646 21.2292 105.542 21.2031 105.438 21.2031ZM119.578 18.3125L119.266 20.3438L112.547 22.9219L112.859 20.9688L114.969 20.2656L115.75 14.9531H114.031L114.266 13.2344H115.984L116.531 9.09375H114.578L114.812 7.375H121.062L120.75 9.09375H118.719L118.016 13.2344H119.734L119.5 14.9531H117.781L117.234 19.3281L119.578 18.3125ZM126.688 14.4062H128.484L128.875 11.9844H127L126.688 14.4062ZM122.703 14.4062H124.578L124.969 11.9844H123.094L122.703 14.4062ZM129.344 8.3125C129.396 8.15625 129.344 8.07812 129.188 8.07812H127.547L127.156 10.5H129.031L129.344 8.3125ZM125.516 8.07812H123.719L123.328 10.5H125.125L125.516 8.07812ZM130.203 6.51562C130.776 6.51562 131.167 6.59375 131.375 6.75C131.531 6.95833 131.583 7.32292 131.531 7.84375L130.281 15.9688H126.453L126.141 18.3125H130.047L129.812 19.875H125.906L125.516 22.5312H130.281L130.047 24.25H118.328L118.562 22.5312H123.406L123.797 19.875H119.891L120.125 18.3125H124.031L124.344 15.9688H120.516L121.922 6.51562H130.203ZM150.906 6.75L150.672 8.39062H143.953L142.938 15.5781H150.672L150.438 17.2188H142.703L141.766 24.0938H139.422L140.438 17.2188H133.172L133.406 15.5781H140.672L141.688 8.39062H135.281L135.516 6.75H150.906ZM137.938 9.48438C138.302 10.8385 138.849 12.5052 139.578 14.4844H137.234C136.766 12.974 136.297 11.3073 135.828 9.48438H137.938ZM146.844 14.5625H144.5C145.542 12.9479 146.375 11.2552 147 9.48438H149.188C148.406 11.4115 147.625 13.1042 146.844 14.5625ZM167.312 13L166.844 14.0156H153.016C154.214 12.8698 155.438 11.5938 156.688 10.1875C157.938 8.78125 159.005 7.53125 159.891 6.4375H162.781C162.104 7.27083 161.297 8.20833 160.359 9.25C159.422 10.3438 158.51 11.3333 157.625 12.2188H166.922C165.828 10.4479 165.073 9.17188 164.656 8.39062H167C167.469 9.11979 168.224 10.2656 169.266 11.8281C170.255 13.4427 170.854 14.4062 171.062 14.7188H168.328L167.312 13ZM167.234 16.125C167.807 16.125 168.198 16.2292 168.406 16.4375C168.562 16.6979 168.589 17.1406 168.484 17.7656L167.625 24.4062H153.328L154.578 16.125H167.234ZM166.141 18.2344C166.193 18.026 166.115 17.9219 165.906 17.9219H156.531L155.984 22.6094H165.516L166.141 18.2344Z" fill="#0052D9"/>
<defs>
<linearGradient id="paint0_linear_454_102995" x1="15.5" y1="6.5" x2="11.5" y2="25.5" gradientUnits="userSpaceOnUse">
<stop stop-color="#B5C7FF"/>
<stop offset="1" stop-color="#0052D9"/>
</linearGradient>
</defs>
</svg>
