<svg width="64" height="64" viewBox="0 0 64 64" fill="none" xmlns="http://www.w3.org/2000/svg">
<circle cx="31.451" cy="34.9412" r="27.451" fill="#0052D9"/>
<rect x="28.1562" y="60.1963" width="31.8431" height="2.19608" fill="white"/>
<rect opacity="0.7" x="28.1562" y="60.1963" width="31.8431" height="2.19608" fill="#0052D9"/>
<path d="M36.3923 31.647H51.7649L56.7061 60.196H31.4512L36.3923 31.647Z" fill="white"/>
<path d="M36.3923 31.647H51.7649L56.7061 60.196H31.4512L36.3923 31.647Z" fill="url(#paint0_linear_353_105447)"/>
<path d="M36.3926 17.3726H51.7651V31.6471H36.3926V17.3726Z" fill="white"/>
<path opacity="0.5" d="M36.3926 17.3726H51.7651V20.6667H36.3926V17.3726Z" fill="#0052D9"/>
<path d="M54.8721 49.5985L51.7651 31.647H36.3926L54.8721 49.5985Z" fill="white"/>
<path d="M54.8721 49.5985L51.7651 31.647H36.3926L54.8721 49.5985Z" fill="url(#paint1_linear_353_105447)"/>
<path d="M44.0786 2L56.7061 17.3725H31.4512L44.0786 2Z" fill="white"/>
<path opacity="0.8" d="M44.0786 2L56.7061 17.3725H31.4512L44.0786 2Z" fill="#0052D9"/>
<path d="M39.1377 25.6079C39.1377 24.0918 40.3667 22.8628 41.8828 22.8628V22.8628C43.3989 22.8628 44.6279 24.0918 44.6279 25.6079V31.6471H39.1377V25.6079Z" fill="#0052D9"/>
<path d="M4.03713 36.3812C4.01247 35.9044 4 35.4243 4 34.9414C4 28.9944 5.89101 23.4892 9.10457 18.9941L44.6275 25.059V29.4512L4.03713 36.3812Z" fill="white"/>
<path d="M4.03713 36.3812C4.01247 35.9044 4 35.4243 4 34.9414C4 28.9944 5.89101 23.4892 9.10457 18.9941L44.6275 25.059V29.4512L4.03713 36.3812Z" fill="url(#paint2_linear_353_105447)"/>
<defs>
<linearGradient id="paint0_linear_353_105447" x1="43.2078" y1="28.928" x2="43.2078" y2="60.196" gradientUnits="userSpaceOnUse">
<stop stop-color="white" stop-opacity="0"/>
<stop offset="1" stop-color="#0052D9" stop-opacity="0.3"/>
</linearGradient>
<linearGradient id="paint1_linear_353_105447" x1="45.6324" y1="31.647" x2="45.6324" y2="49.5985" gradientUnits="userSpaceOnUse">
<stop stop-color="#0052D9" stop-opacity="0.7"/>
<stop offset="1" stop-color="#0052D9" stop-opacity="0.3"/>
</linearGradient>
<linearGradient id="paint2_linear_353_105447" x1="44.6275" y1="27.2551" x2="4" y2="27.2551" gradientUnits="userSpaceOnUse">
<stop stop-color="#0052D9" stop-opacity="0.1"/>
<stop offset="1" stop-color="#0052D9" stop-opacity="0.8"/>
</linearGradient>
</defs>
</svg>
